<?xml version="1.0" standalone="no"?>
<!DOCTYPE svg PUBLIC "-//W3C//DTD SVG 20010904//EN"
 "http://www.w3.org/TR/2001/REC-SVG-20010904/DTD/svg10.dtd">
<svg version="1.0" xmlns="http://www.w3.org/2000/svg"
 width="716.000000pt" height="1280.000000pt" viewBox="0 0 716.000000 1280.000000"
 preserveAspectRatio="xMidYMid meet">
<g transform="translate(0.000000,1280.000000) scale(0.100000,-0.100000)"
fill="#45a35c" stroke="none">
<path d="M2630 12695 c0 -91 -11 -107 -34 -51 -27 66 -36 52 -29 -47 5 -87 4
-96 -16 -116 -17 -17 -21 -33 -21 -85 0 -54 4 -69 25 -94 28 -33 32 -47 11
-39 -9 4 -15 -6 -20 -31 -10 -60 -7 -70 24 -105 37 -42 38 -57 5 -57 -14 0
-25 -4 -25 -9 0 -11 67 -71 80 -71 5 0 34 -22 64 -49 31 -26 70 -52 88 -57 17
-5 33 -14 35 -20 7 -20 -27 -44 -63 -44 -19 0 -34 -3 -34 -7 0 -3 11 -21 26
-40 20 -26 32 -33 60 -33 38 0 44 -14 13 -30 -27 -15 -20 -21 54 -46 34 -11
62 -27 62 -34 0 -7 -22 -21 -49 -30 l-50 -16 42 -17 c26 -10 70 -17 112 -17
38 0 71 -4 75 -9 3 -5 30 -15 60 -21 29 -6 66 -21 82 -33 22 -18 39 -22 85
-20 l57 2 11 -37 c23 -84 9 -94 -144 -94 l-112 -1 -130 52 c-71 29 -135 55
-143 58 -11 5 -11 2 -2 -15 13 -25 43 -43 85 -51 36 -8 46 -30 17 -38 -40 -10
-21 -20 50 -27 76 -8 99 -14 99 -25 0 -20 -52 -29 -132 -22 -70 5 -92 11 -129
35 -74 49 -170 137 -230 214 -31 40 -94 111 -139 159 -73 77 -80 82 -65 47 30
-69 30 -72 -10 -88 -21 -9 -45 -16 -54 -16 -9 0 -21 -10 -26 -22 -7 -15 -24
-26 -50 -32 -22 -5 -42 -11 -44 -13 -11 -8 24 -32 57 -38 49 -9 54 -13 42 -34
-8 -16 -5 -20 20 -25 34 -6 39 -22 10 -31 -32 -10 -23 -25 16 -25 34 0 35 -1
29 -30 -6 -27 -3 -31 30 -45 25 -10 35 -20 32 -29 -4 -9 6 -22 28 -34 22 -13
35 -31 40 -51 5 -26 10 -30 29 -25 18 4 29 -3 50 -31 22 -28 33 -35 50 -31 15
4 28 -2 46 -23 24 -29 26 -29 77 -18 48 10 56 9 100 -15 85 -45 173 -56 266
-32 16 3 38 2 50 -3 145 -66 149 -66 141 -23 -7 33 2 38 32 15 26 -20 36 -19
29 4 -10 32 32 62 61 43 19 -12 78 -252 65 -265 -18 -18 -170 -14 -218 5 -24
10 -74 25 -113 34 -56 12 -85 26 -133 63 -60 46 -99 71 -112 71 -3 0 4 -18 16
-41 l20 -41 -21 -23 -22 -24 41 -20 c48 -25 51 -33 14 -50 -22 -10 -24 -14
-12 -22 7 -5 30 -9 49 -9 40 0 54 -8 63 -33 4 -10 12 -17 19 -16 27 3 38 -2
38 -16 0 -11 12 -15 43 -15 23 0 50 -7 61 -15 14 -11 22 -11 37 -2 14 8 26 9
47 1 25 -10 31 -8 51 14 18 21 28 24 59 18 23 -3 44 -15 56 -31 12 -17 24 -24
36 -20 13 4 22 -1 29 -14 19 -34 12 -51 -24 -67 -39 -16 -180 -19 -219 -4 -14
5 -82 23 -152 39 -90 21 -134 37 -153 54 -14 13 -46 36 -71 52 -25 15 -91 66
-148 113 -90 74 -241 172 -264 172 -5 0 -6 -11 -2 -24 9 -38 -31 -44 -121 -19
-19 5 -19 5 -2 -14 23 -26 22 -40 -5 -54 -20 -11 -21 -12 -2 -22 10 -5 21 -12
24 -14 8 -7 -24 -23 -48 -23 -13 0 -33 -6 -45 -12 -19 -11 -11 -14 62 -18 51
-3 86 -10 88 -17 2 -6 -15 -23 -39 -38 l-43 -26 50 3 50 3 0 -37 c0 -20 2 -38
5 -40 40 -31 65 -39 102 -33 37 7 39 6 36 -16 -3 -23 -1 -24 51 -20 46 3 53 1
47 -13 -3 -9 -9 -23 -12 -31 -8 -19 22 -19 56 0 38 22 101 19 107 -4 2 -10 15
-23 28 -29 13 -6 26 -20 29 -30 4 -11 16 -22 27 -25 14 -4 19 -11 16 -24 -3
-10 -8 -28 -12 -40 -8 -29 5 -29 63 -3 24 11 62 24 85 30 23 6 50 13 59 16 12
4 22 -3 29 -20 11 -24 13 -24 40 -11 34 18 92 19 118 3 16 -10 23 -7 43 17
l25 29 30 -22 c16 -11 38 -19 49 -16 27 7 88 -60 107 -116 8 -25 14 -72 13
-105 l-1 -60 -41 -3 c-40 -3 -41 -3 -59 45 -42 113 -84 174 -86 126 0 -31 -76
-248 -85 -246 -5 0 -13 17 -17 37 -5 20 -15 36 -23 36 -8 0 -14 6 -14 13 -1
23 -38 -70 -45 -112 -4 -22 -11 -41 -16 -41 -5 0 -32 31 -61 69 -28 39 -55 68
-60 65 -4 -3 -8 -19 -8 -36 0 -27 -2 -30 -22 -23 -13 4 -50 8 -83 9 -58 1 -61
2 -74 34 -8 18 -20 31 -26 28 -21 -8 -143 21 -171 41 -52 36 -53 36 -47 -1 7
-43 -7 -51 -53 -29 -29 15 -39 27 -53 68 -13 40 -20 49 -36 47 -11 -2 -35 -3
-52 -2 -36 1 -42 -14 -22 -51 11 -22 -3 -49 -25 -49 -14 0 -88 96 -115 149
-22 42 -51 70 -37 35 14 -36 19 -84 8 -84 -6 0 -21 14 -34 31 l-24 30 2 -104
c2 -122 15 -169 55 -198 41 -29 37 -45 -13 -54 l-43 -7 30 -13 c18 -8 30 -21
30 -32 0 -16 10 -18 78 -21 71 -3 92 -11 67 -27 -24 -15 5 -25 51 -19 49 7 60
-1 37 -24 -18 -18 13 -15 102 8 99 26 118 26 122 -2 3 -21 8 -23 55 -20 45 3
52 1 58 -17 7 -25 12 -25 45 -6 45 26 115 18 209 -21 47 -20 95 -45 106 -55
41 -36 142 -80 295 -129 87 -28 163 -49 170 -48 28 7 51 -47 57 -134 l6 -86
-39 -11 c-21 -5 -77 -19 -123 -31 l-85 -21 -76 30 c-70 28 -265 65 -283 54 -4
-3 8 -34 28 -70 23 -41 33 -69 27 -75 -11 -11 -71 17 -156 74 -53 37 -57 38
-51 17 17 -53 18 -52 -105 -50 -73 1 -144 9 -195 21 -44 11 -109 23 -145 28
-77 9 -240 4 -240 -8 0 -15 67 -40 133 -49 37 -5 71 -12 77 -16 28 -17 -12
-23 -130 -18 -72 3 -130 3 -130 0 0 -4 15 -14 33 -24 22 -12 27 -18 16 -20
-32 -7 -263 38 -323 63 -60 25 -182 64 -200 64 -6 0 -5 -5 2 -12 23 -23 14
-40 -18 -33 -19 4 -30 3 -30 -4 0 -6 -14 -11 -31 -11 l-30 0 29 -36 c16 -19
56 -48 91 -64 33 -16 61 -34 61 -39 0 -5 -19 -11 -42 -13 l-43 -3 44 -16 c56
-19 61 -32 19 -50 l-33 -14 40 -7 c22 -4 84 -5 138 -2 70 5 122 2 180 -10 45
-8 104 -19 131 -23 28 -5 50 -12 50 -18 0 -5 -18 -20 -40 -32 -51 -29 -33 -29
76 2 70 21 105 25 176 23 82 -3 89 -5 92 -24 3 -19 7 -21 40 -13 37 8 62 -2
62 -25 1 -34 17 -38 65 -17 62 27 81 26 101 -4 19 -29 25 -28 125 17 83 37
121 33 151 -18 11 -19 23 -32 26 -30 4 2 39 22 78 45 66 38 76 41 165 46 83 4
102 9 160 39 89 47 189 53 189 11 0 -19 -96 -80 -198 -125 -45 -21 -109 -56
-142 -79 -84 -59 -317 -160 -420 -182 -47 -10 -119 -18 -161 -19 -43 0 -96 -7
-124 -16 -44 -16 -50 -16 -77 0 -36 22 -58 15 -58 -18 0 -36 -14 -39 -61 -15
-44 22 -58 16 -59 -22 0 -30 -34 -56 -85 -68 -27 -7 -68 -24 -90 -38 -33 -22
-57 -28 -143 -35 -83 -7 -124 -17 -221 -53 -219 -82 -290 -96 -521 -105 l-205
-7 -85 -37 c-47 -20 -92 -45 -100 -55 -9 -10 -55 -40 -104 -67 -49 -27 -98
-62 -110 -78 -54 -73 -93 -101 -202 -141 -101 -37 -106 -40 -71 -43 21 -2 72
4 114 12 121 25 113 7 -25 -64 -106 -54 -105 -57 11 -35 75 14 97 13 97 -4 0
-4 -29 -20 -65 -35 -82 -35 -96 -51 -54 -60 56 -11 70 -7 136 40 38 26 69 42
75 36 5 -5 -1 -27 -15 -53 -18 -36 -34 -50 -85 -75 -35 -17 -88 -37 -118 -43
-41 -9 -54 -17 -52 -29 2 -12 -14 -19 -72 -31 -60 -13 -75 -20 -75 -34 0 -13
-15 -24 -51 -36 -57 -20 -154 -67 -168 -82 -6 -6 -3 -9 8 -9 34 0 12 -35 -32
-50 -24 -8 -41 -20 -39 -28 1 -7 -18 -31 -43 -53 l-45 -40 62 6 c34 3 64 2 67
-3 7 -12 -85 -99 -139 -132 l-40 -25 74 -3 c42 -2 79 2 85 8 14 14 76 13 76
-1 0 -6 -14 -27 -31 -46 -16 -19 -29 -42 -27 -51 7 -34 38 -23 96 32 65 62 88
69 98 31 3 -14 11 -25 17 -25 6 0 22 -11 36 -25 23 -21 31 -23 64 -16 50 12
85 36 105 73 31 56 95 138 109 138 9 0 13 -17 13 -64 0 -36 4 -67 9 -71 6 -3
31 24 56 60 26 36 49 65 52 65 10 0 48 -23 56 -34 4 -6 5 -26 2 -43 -4 -19 -2
-33 4 -33 6 0 40 27 78 60 l67 60 81 -1 c120 -2 140 -8 141 -44 l0 -30 65 1
c56 2 68 5 95 30 36 34 109 62 183 71 44 5 56 3 66 -11 11 -14 19 -15 57 -7
59 14 194 63 256 95 43 22 49 28 45 50 -9 48 16 47 152 -6 84 -32 89 -36 73
-56 -22 -27 -174 -91 -255 -108 -80 -16 -133 -38 -133 -53 0 -9 43 -8 211 3
51 3 73 14 232 109 97 58 190 113 208 122 l32 17 -7 -37 c-7 -33 -5 -35 11
-26 10 5 38 30 62 55 l45 45 56 -6 c51 -5 66 -2 136 30 153 69 480 190 525
194 55 6 65 -4 46 -49 -8 -18 -12 -38 -10 -45 2 -6 -29 -22 -76 -38 -45 -15
-84 -31 -87 -37 -4 -6 -44 -28 -90 -49 -78 -36 -105 -59 -70 -59 28 0 29 -23
2 -47 -32 -27 -78 -41 -84 -25 -2 8 -22 10 -62 5 -32 -3 -71 -1 -88 5 -24 8
-33 7 -42 -3 -7 -8 -21 -17 -33 -21 -11 -4 -42 -23 -68 -44 -59 -46 -125 -73
-261 -104 -59 -14 -200 -51 -315 -82 -114 -31 -237 -65 -273 -74 -105 -29
-127 -40 -155 -76 -14 -19 -68 -62 -118 -97 -91 -61 -91 -62 -59 -65 19 -2 47
1 63 7 16 5 30 7 32 3 3 -4 -17 -36 -42 -72 -32 -45 -60 -71 -89 -85 -23 -12
-47 -26 -54 -33 -18 -18 30 -16 87 3 53 18 69 13 61 -21 -8 -31 1 -30 36 3 24
23 30 25 39 13 5 -8 8 -32 5 -53 l-4 -39 25 24 c14 12 36 44 49 71 28 53 41
59 50 21 9 -36 -6 -77 -34 -89 -46 -20 -19 -27 86 -21 59 4 131 9 160 13 62 6
68 -8 22 -52 -16 -16 -28 -31 -25 -33 2 -2 40 8 84 24 44 16 83 25 87 22 3 -4
1 -21 -5 -39 -13 -36 -15 -89 -3 -89 4 1 21 24 37 53 20 35 38 53 53 55 26 4
29 -12 5 -28 -14 -9 -8 -10 30 -6 36 4 49 2 53 -9 7 -17 34 -6 72 28 34 31 44
12 40 -77 -2 -64 0 -76 13 -76 8 0 30 -11 49 -25 33 -24 41 -24 71 2 24 21
111 42 213 53 95 11 159 34 190 69 23 25 61 29 52 5 -18 -48 -18 -64 1 -64 29
0 64 29 79 66 17 41 24 42 52 9 12 -14 26 -25 32 -25 5 0 19 19 31 43 40 80
81 106 109 72 16 -19 14 -98 -2 -128 -30 -58 -95 -121 -147 -144 -30 -14 -67
-33 -81 -42 -38 -27 -83 -39 -210 -56 -63 -9 -128 -18 -144 -21 -58 -12 2 -26
140 -31 108 -5 134 -9 130 -20 -8 -19 19 -16 65 7 48 25 59 20 59 -26 0 -41 9
-43 40 -9 19 20 33 25 72 25 l48 0 0 -37 c0 -21 7 -69 15 -108 21 -98 20 -188
-2 -207 -10 -8 -63 -40 -118 -71 -56 -31 -110 -65 -120 -77 -32 -35 -46 -39
-257 -81 -180 -35 -209 -43 -282 -83 -45 -24 -146 -78 -224 -120 -104 -56
-164 -82 -214 -92 -39 -8 -83 -21 -97 -30 -25 -14 -24 -14 24 -8 88 10 198 44
280 86 91 46 145 64 219 73 47 6 57 4 116 -31 83 -48 100 -63 100 -86 0 -22
19 -20 34 5 8 13 2 24 -33 56 -60 56 -55 80 22 98 31 7 71 20 89 29 17 9 60
20 94 24 37 5 75 17 92 28 28 21 125 42 190 42 39 0 41 -16 10 -71 -29 -51
-154 -123 -389 -223 -96 -41 -232 -101 -301 -134 -111 -53 -134 -60 -209 -66
-91 -7 -309 -55 -309 -68 0 -4 54 -8 120 -8 66 0 120 -4 120 -9 0 -5 -53 -43
-117 -85 -65 -42 -111 -76 -103 -76 42 0 155 42 235 88 103 59 110 56 71 -37
-15 -33 -26 -72 -26 -86 0 -23 3 -25 23 -19 19 6 83 43 165 95 19 12 25 12 44
0 12 -8 23 -10 25 -5 2 5 20 38 41 74 42 73 68 87 78 43 3 -15 11 -46 16 -68
l10 -40 15 30 c26 51 44 65 83 65 42 0 70 25 95 83 23 55 47 58 107 15 13 -10
22 -6 53 21 32 28 43 32 83 29 l47 -3 3 -163 2 -162 -102 -67 c-194 -126 -260
-163 -292 -163 -46 0 -76 -11 -76 -26 0 -21 -16 -26 -128 -35 -59 -5 -138 -18
-177 -29 -198 -58 -213 -59 -585 -53 -386 7 -397 5 -511 -63 -31 -19 -62 -34
-68 -34 -7 0 -48 -17 -93 -37 -86 -39 -87 -51 -3 -52 61 -1 33 -18 -112 -67
l-128 -43 55 0 c53 -1 250 21 318 35 58 12 35 -14 -45 -51 -42 -19 -73 -38
-70 -41 3 -4 35 -1 71 7 36 7 69 9 73 5 4 -4 0 -19 -9 -34 -11 -18 -27 -28
-48 -30 -30 -3 -31 -4 -13 -17 10 -8 42 -14 75 -15 66 0 88 -7 88 -27 0 -11 6
-12 23 -6 48 17 167 -9 167 -37 0 -6 -12 -27 -26 -46 -15 -19 -25 -36 -23 -38
2 -2 51 0 108 6 116 10 134 7 129 -23 -2 -18 -26 -29 -133 -66 -232 -79 -275
-93 -297 -93 -16 0 -19 -5 -15 -20 6 -25 -22 -46 -76 -55 -20 -4 -63 -24 -95
-44 -31 -20 -70 -42 -87 -50 -51 -23 -196 -71 -280 -92 -91 -23 -168 -62 -189
-94 -8 -13 -46 -40 -83 -61 -99 -55 -287 -188 -273 -192 7 -3 46 1 87 8 41 6
77 9 80 6 3 -3 -11 -27 -31 -54 -20 -27 -36 -53 -36 -57 0 -18 109 10 161 41
31 19 59 34 63 34 16 0 2 -28 -45 -91 -43 -58 -51 -77 -56 -126 -7 -68 -18
-72 117 49 116 106 128 103 61 -13 l-40 -69 32 14 c33 14 139 62 169 77 33 17
26 -8 -28 -90 -56 -86 -67 -121 -37 -121 24 0 143 67 179 102 38 36 103 61
121 46 7 -6 11 -20 9 -32 -3 -11 -7 -41 -11 -66 l-6 -45 96 95 c91 90 97 94
110 76 8 -11 16 -18 19 -15 2 2 31 45 65 94 34 50 68 90 74 90 7 0 13 -19 15
-45 4 -49 24 -80 53 -80 22 0 43 39 94 175 20 55 42 103 48 107 21 13 29 -5
22 -51 l-7 -46 64 63 c47 46 74 64 100 68 31 5 36 3 42 -17 l7 -24 17 25 c9
14 30 37 45 52 16 15 26 32 23 36 -3 5 5 25 17 43 22 33 25 34 107 41 47 3
112 11 144 17 83 15 146 14 146 -2 0 -8 -12 -19 -27 -26 -47 -21 -153 -93
-153 -103 0 -6 10 -8 23 -4 12 3 39 9 60 12 44 8 46 0 17 -65 -18 -39 -25 -71
-17 -71 2 0 28 7 57 16 41 12 64 27 93 60 21 24 43 44 48 44 5 0 9 -25 9 -55
0 -52 1 -55 26 -55 17 0 43 17 80 52 30 28 57 48 61 44 4 -3 7 -28 7 -53 1
-47 0 -48 -47 -74 -65 -35 -82 -54 -42 -45 97 20 93 21 97 -10 l4 -29 19 38
c17 34 26 40 100 62 121 37 124 35 95 -48 -25 -70 -25 -87 -2 -87 33 0 64 33
93 96 16 35 34 64 39 64 5 0 15 -21 21 -46 7 -25 18 -48 26 -51 16 -6 70 42
109 99 15 21 31 38 37 38 28 0 -20 -282 -124 -734 -70 -301 -83 -369 -104
-530 -18 -139 -45 -541 -45 -671 0 -90 0 -91 -44 -160 -25 -39 -63 -100 -85
-137 -23 -37 -53 -75 -69 -85 -15 -11 -92 -51 -172 -90 -80 -40 -163 -85 -184
-102 -20 -16 -42 -32 -49 -34 -9 -3 -9 -7 0 -17 7 -8 45 -15 91 -18 71 -4 90
-1 178 29 l99 34 306 0 306 0 72 -38 c68 -35 77 -37 164 -37 51 -1 121 -7 157
-15 101 -22 103 -22 96 22 -4 21 -16 49 -26 63 -47 60 -61 99 -54 149 6 47 5
50 -22 64 -52 28 -121 109 -149 176 l-27 65 12 155 c7 96 9 220 5 321 -7 159
-6 170 23 300 16 74 32 167 36 205 6 72 42 294 75 470 19 99 23 131 41 380 10
140 36 305 49 318 12 12 105 -16 176 -53 145 -75 140 -74 370 -75 140 -1 237
-7 293 -17 45 -8 82 -14 82 -12 0 13 -59 26 -191 39 -85 9 -176 21 -203 26
-27 5 -65 9 -85 9 -85 0 -107 61 -33 94 23 11 42 23 42 27 0 12 -83 -3 -123
-23 l-38 -19 -87 51 c-48 27 -107 68 -131 89 l-45 40 12 49 c6 28 16 121 22
209 20 296 30 415 36 424 8 14 61 -18 86 -52 29 -39 120 -109 141 -109 14 0
17 12 17 74 0 41 4 78 10 81 5 3 26 -2 46 -11 27 -13 43 -32 66 -79 l31 -63
134 -62 c137 -63 373 -145 373 -129 0 5 -36 62 -80 126 -72 105 -92 143 -74
143 18 0 114 -68 153 -107 32 -32 50 -43 65 -39 14 3 52 -14 118 -55 125 -77
143 -75 78 10 -50 64 -59 84 -40 96 6 4 74 -34 150 -84 77 -50 142 -91 145
-91 3 0 10 11 15 25 10 27 35 33 43 10 4 -8 24 -23 47 -35 32 -16 45 -18 61
-10 26 14 40 5 139 -89 41 -39 79 -71 83 -71 5 0 6 27 2 60 -4 33 -3 60 1 60
5 0 30 -21 56 -47 47 -46 48 -47 48 -21 0 39 16 43 58 15 68 -45 92 -76 92
-119 0 -59 24 -106 62 -122 18 -8 34 -13 35 -12 2 1 -7 31 -18 65 -18 53 -19
67 -9 89 l12 27 29 -35 c15 -19 42 -52 59 -72 31 -36 115 -86 127 -74 3 3 -6
34 -20 68 -15 35 -27 68 -27 74 0 17 117 27 218 19 109 -9 104 -2 -55 76 -128
63 -128 64 -3 71 l45 3 -66 37 c-79 45 -100 65 -78 79 8 5 22 9 32 9 34 0 16
15 -45 39 -35 13 -70 30 -79 38 -16 13 -57 27 -254 83 -55 16 -141 48 -190 72
-78 37 -98 43 -146 40 -45 -2 -62 2 -80 18 -26 21 -24 25 27 56 16 9 13 13
-26 26 -33 10 -46 21 -48 36 -2 16 -10 22 -28 22 -14 0 -50 9 -82 19 -31 11
-86 26 -122 35 -79 18 -234 82 -252 103 -10 12 -9 17 6 28 17 13 16 14 -7 29
-22 15 -255 91 -353 116 -22 5 -60 24 -83 40 -36 27 -42 35 -39 63 3 32 2 32
-57 46 -33 7 -71 15 -83 18 -15 2 -22 9 -19 18 9 23 -21 28 -208 33 -227 6
-237 9 -278 107 -52 127 -58 153 -48 225 10 74 -1 130 -43 220 -30 64 -32 93
-10 198 36 179 56 252 69 252 7 0 23 -24 35 -54 19 -44 26 -53 43 -48 21 6 22
10 0 -85 -6 -26 11 -30 51 -12 34 16 56 -2 56 -45 0 -17 4 -37 9 -45 8 -12 13
-12 36 3 49 32 97 -7 105 -87 l5 -52 85 -47 c65 -36 117 -55 225 -82 l140 -35
64 29 c35 17 71 30 80 30 20 0 77 -34 130 -78 40 -33 41 -33 41 -10 1 100 28
92 194 -56 l89 -80 -7 36 c-4 20 -2 39 3 42 5 3 31 -5 58 -19 26 -13 68 -28
93 -31 40 -7 44 -6 32 9 -11 13 -10 18 12 33 37 24 96 27 206 13 109 -14 216
-17 227 -6 4 5 1 17 -6 29 -19 31 -1 38 98 38 95 0 96 5 10 60 -53 35 -62 57
-26 65 12 3 62 13 110 24 49 11 91 22 94 25 4 3 -25 6 -63 7 -138 1 -198 22
-125 43 41 12 39 22 -4 30 -19 4 -35 13 -35 19 0 7 25 25 57 41 l56 27 -29 15
c-25 14 -44 14 -149 2 -66 -7 -203 -13 -305 -12 -222 0 -224 1 -465 122 -204
102 -244 116 -395 142 -208 36 -278 69 -410 195 -47 45 -95 86 -108 90 -13 4
-32 21 -42 38 -21 34 -180 137 -211 137 -29 0 -30 14 -9 102 11 45 23 125 26
176 4 51 10 95 14 97 4 3 21 0 36 -5 16 -5 73 -14 126 -19 65 -6 117 -18 160
-36 243 -104 218 -97 392 -106 172 -8 227 -18 255 -43 10 -9 26 -16 37 -16 16
0 14 4 -11 24 -34 28 -121 53 -212 60 -117 10 -177 56 -95 73 20 4 59 7 87 6
42 -1 46 1 30 10 -28 17 -181 15 -234 -2 -40 -14 -46 -13 -75 4 -62 37 -107
56 -168 71 -81 21 -145 54 -183 94 -16 18 -58 52 -93 77 -56 40 -62 49 -57 72
3 14 10 52 15 84 5 31 12 62 15 67 11 18 44 11 56 -12 l12 -22 8 23 c13 35 31
21 52 -43 19 -56 19 -57 39 -39 20 18 21 17 53 -19 18 -21 39 -38 48 -38 17 0
45 -31 97 -108 36 -53 70 -69 70 -32 0 26 25 26 58 -1 23 -18 27 -19 30 -5 4
20 20 20 89 0 59 -17 74 -14 53 12 -12 13 -11 17 1 25 8 5 25 9 39 9 l25 1
-22 16 c-33 22 -29 47 11 61 l33 12 -15 46 c-13 41 -13 47 1 61 20 21 57 11
101 -27 18 -17 37 -30 41 -30 4 0 16 11 27 25 27 35 73 33 124 -5 43 -31 131
-57 146 -42 5 5 -12 25 -42 48 -27 21 -49 43 -47 49 2 5 37 12 77 15 l73 5
-39 18 c-35 17 -37 20 -21 32 16 12 16 13 -3 18 -29 7 -25 26 8 33 58 12 54
18 -23 32 -44 8 -131 30 -194 50 -92 28 -123 43 -156 73 -68 63 -361 201 -407
192 -20 -4 -33 1 -50 19 -13 14 -36 33 -51 43 -21 14 -27 24 -23 40 5 20 1 23
-33 28 -56 7 -147 51 -161 77 -17 32 -4 90 20 90 13 0 20 8 22 28 3 26 5 27
55 26 36 -1 60 -8 79 -23 37 -29 46 -26 42 11 -4 44 18 46 32 3 15 -46 41 -69
108 -100 33 -15 76 -48 113 -87 64 -67 70 -63 39 27 -30 88 -12 88 61 1 56
-67 79 -88 79 -71 0 3 -11 23 -25 45 -50 80 -28 91 55 26 54 -43 132 -77 102
-45 -6 7 -12 21 -12 32 0 14 5 17 23 12 12 -4 4 6 -20 22 -24 15 -72 63 -108
105 -58 67 -73 79 -121 95 -69 21 -92 44 -143 143 -40 76 -50 110 -32 110 5 0
73 -68 152 -152 172 -181 209 -211 254 -202 28 5 36 1 65 -33 20 -23 34 -33
37 -25 7 18 24 15 49 -9 15 -14 73 -34 171 -58 81 -21 188 -55 237 -75 130
-52 143 -49 106 24 -11 22 -20 42 -20 45 0 10 38 4 120 -19 l84 -25 41 25 c23
13 64 27 91 30 27 4 58 11 68 17 18 9 16 13 -25 48 -40 35 -42 40 -27 52 15
12 14 15 -13 31 -38 22 -37 36 4 37 17 1 46 4 62 8 29 6 27 7 -32 30 -67 25
-101 51 -67 51 11 0 67 -10 127 -21 59 -12 110 -20 113 -17 2 3 -4 29 -16 57
-23 60 -26 91 -6 91 8 0 49 -32 91 -70 43 -39 80 -69 82 -66 3 2 -2 17 -10 33
-9 16 -18 45 -22 66 -6 31 -4 37 10 37 10 0 84 -36 165 -79 161 -87 207 -104
260 -99 l35 3 -114 118 c-63 64 -112 119 -109 122 2 3 24 -10 48 -27 34 -25
56 -33 102 -36 32 -2 58 -1 58 2 0 4 -37 25 -82 46 -89 42 -137 74 -126 86 4
3 25 -1 47 -9 22 -9 69 -19 105 -23 77 -8 86 5 29 39 -33 19 -35 22 -17 25 12
2 49 -4 82 -12 64 -17 232 -22 232 -7 0 5 -43 26 -96 47 -53 22 -97 44 -97 49
-1 6 30 11 71 13 89 4 165 -16 243 -64 55 -33 129 -47 129 -24 0 22 -65 80
-125 111 -36 19 -63 38 -62 44 2 5 37 15 79 21 146 23 153 53 14 61 -53 4 -86
10 -86 17 0 6 28 29 63 51 l62 40 -35 3 c-19 1 -46 5 -60 8 -24 6 -24 7 25 50
l50 44 -65 0 c-36 0 -123 9 -195 20 -71 11 -181 20 -243 20 -339 0 -950 130
-1224 259 -143 68 -223 88 -396 101 -259 18 -401 39 -482 71 -69 26 -252 78
-360 101 -25 6 -48 13 -52 17 -13 11 -36 146 -27 155 5 6 22 2 43 -9 l34 -18
32 27 c35 29 26 31 105 -20 25 -16 25 -16 25 15 0 17 4 31 8 31 4 0 24 -16 43
-36 42 -44 79 -64 119 -64 25 0 30 4 30 25 0 29 3 30 95 10 70 -14 115 -12
115 7 0 6 14 8 38 3 20 -4 41 -7 47 -8 5 -1 9 3 10 10 0 22 12 23 111 9 54 -8
101 -12 103 -10 2 2 -4 15 -13 29 -31 47 -17 55 93 55 55 0 103 4 106 10 3 5
-15 19 -40 31 -87 41 -42 67 118 68 37 1 67 4 67 7 0 3 -8 19 -17 34 -15 27
-15 31 1 74 12 32 27 51 48 62 22 12 27 19 19 27 -35 35 -2 51 139 71 54 8
103 17 109 20 33 20 -18 49 -106 61 -33 4 -53 12 -53 20 0 7 23 30 51 51 l50
39 -40 3 c-48 4 -50 10 -16 42 30 28 31 48 5 92 -10 18 -16 38 -12 43 4 6 33
32 65 59 43 36 56 53 52 66 -3 11 3 37 15 59 16 33 18 41 6 41 -27 0 -28 20
-5 68 16 32 23 63 22 97 -1 29 7 74 19 107 23 65 19 77 -32 98 -28 12 -32 10
-82 -35 -65 -58 -70 -67 -108 -186 -33 -105 -52 -136 -104 -169 l-34 -21 -47
32 c-37 25 -46 36 -43 57 2 20 12 29 48 41 l45 15 -48 11 c-26 5 -48 15 -48
20 0 5 32 17 72 27 91 23 112 36 127 84 14 45 9 54 -27 54 -16 0 -43 3 -60 6
-28 6 -31 10 -31 43 0 21 -14 64 -35 105 -28 55 -42 72 -75 88 -47 24 -49 32
-12 52 l27 14 -25 10 c-14 5 -34 11 -45 13 -31 6 -28 32 10 81 43 58 45 72 6
63 -27 -6 -32 -3 -50 32 l-20 38 -1 -37 c0 -52 -17 -56 -53 -12 l-32 38 -6
-124 c-5 -112 -8 -132 -36 -191 -34 -75 -178 -324 -202 -352 -44 -51 -176
-130 -283 -168 -69 -25 -132 -55 -163 -78 -49 -37 -88 -61 -99 -61 -3 0 -6 6
-6 14 0 25 -16 27 -44 5 -16 -12 -26 -30 -26 -46 0 -39 -21 -23 -62 48 -28 47
-38 75 -38 107 0 38 -2 43 -18 38 -14 -5 -30 8 -63 49 -63 80 -83 83 -94 15
-4 -22 -10 -40 -15 -40 -9 0 -70 175 -70 201 0 12 13 19 45 23 48 8 68 4 128
-22 38 -16 39 -15 57 8 17 23 19 23 76 11 33 -8 65 -16 72 -19 10 -3 12 4 7
31 l-7 35 44 7 c41 6 44 9 40 31 -4 23 -2 24 47 24 28 0 51 2 51 5 0 2 -7 23
-17 46 -14 35 -14 45 -3 63 7 11 16 35 20 51 6 29 7 30 59 26 l54 -3 -6 36
c-3 20 -1 38 4 41 5 4 9 15 9 26 0 14 10 25 29 32 l29 11 -29 27 c-25 23 -28
32 -22 56 19 68 0 144 -29 115 -18 -18 -24 -15 -48 22 l-21 35 -43 -31 c-35
-24 -48 -28 -62 -20 -16 9 -14 13 20 33 30 17 36 26 32 43 -4 15 3 28 27 48
l32 27 -42 18 c-32 14 -41 22 -37 36 4 14 -1 17 -27 17 l-33 0 34 35 c29 30
32 37 20 45 -8 5 -22 10 -31 10 -31 0 -30 15 3 42 l33 27 -42 1 c-53 0 -61 13
-26 39 l28 20 -73 1 c-98 0 -92 17 21 53 83 28 87 30 87 58 0 24 -6 32 -31 41
-54 19 -62 84 -14 106 32 15 32 26 0 40 -32 15 -32 39 1 103 14 28 23 53 21
56 -3 2 -22 -3 -43 -12 -63 -26 -125 11 -73 43 18 11 20 19 14 50 -9 50 -32
102 -44 102 -5 0 -35 -23 -66 -51 -40 -38 -59 -49 -67 -41 -8 8 -3 20 16 42
24 29 25 33 12 59 -13 24 -119 124 -152 144 -8 4 -5 -15 6 -51 15 -46 17 -83
15 -190 -3 -112 -8 -146 -35 -231 -26 -86 -40 -112 -101 -193 -40 -51 -75 -94
-80 -96 -4 -2 -27 -18 -51 -36 -53 -40 -136 -70 -153 -56 -18 15 -38 67 -32
84 3 7 18 16 33 20 21 6 33 1 54 -19 23 -22 29 -24 39 -11 7 8 25 16 39 18 24
3 27 8 30 43 3 36 8 44 47 69 30 18 45 35 45 49 0 11 5 36 12 54 10 27 9 44
-2 91 -13 50 -18 57 -40 58 -47 1 -50 4 -50 37 0 24 -8 8 -32 -60 -29 -89 -50
-114 -60 -75 -3 12 -26 24 -67 37 -83 25 -92 38 -47 67 39 25 44 39 21 58 -22
18 -19 27 15 46 40 24 43 39 15 73 -14 16 -25 37 -25 47 0 12 -21 32 -57 53
-61 37 -61 37 3 78 16 10 9 12 -43 12 -98 1 -113 16 -73 76 11 17 20 47 20 68
0 35 -2 38 -22 31 -43 -14 -63 -11 -60 11 12 74 -3 172 -31 202 -24 27 -37 21
-37 -15 0 -35 -68 -230 -92 -264 -14 -21 -28 -28 -51 -28 -18 0 -37 4 -43 8
-7 4 -15 56 -19 132 -4 69 -9 128 -12 133 -8 14 -71 -72 -77 -108 -4 -19 -11
-35 -16 -35 -11 0 -17 19 -29 99 -6 35 -12 66 -15 68 -5 6 -36 -93 -36 -115 0
-7 -6 -12 -12 -10 -9 3 -16 47 -23 135 -9 122 -21 163 -46 163 -5 0 -9 -38 -9
-85z m-165 -1340 c0 -5 -10 -11 -22 -13 -16 -2 -23 2 -23 13 0 11 7 15 23 13
12 -2 22 -7 22 -13z m1502 -179 c-3 -39 -10 -87 -16 -108 -28 -92 -275 -377
-315 -362 -17 7 -35 63 -72 226 l-25 112 22 16 c17 14 20 23 14 48 -9 41 0 54
29 42 16 -6 27 -5 35 3 9 9 16 8 32 -1 12 -8 29 -10 42 -6 12 5 30 7 40 5 9
-1 43 5 75 14 88 25 87 24 74 37 -19 19 -14 36 16 46 48 16 55 7 49 -72z m49
-400 c6 -17 -12 -56 -26 -56 -5 0 -15 10 -21 22 -10 18 -8 24 7 35 23 17 33
16 40 -1z m-60 -87 c10 -17 -41 -61 -141 -124 -110 -69 -132 -69 -151 -6 -7
25 -11 48 -8 53 9 14 71 9 84 -7 11 -13 16 -11 40 15 18 19 38 30 55 30 15 0
40 11 57 25 32 27 53 32 64 14z m1451 -584 c-4 -8 -11 -15 -17 -15 -14 0 -13
27 3 33 16 6 21 1 14 -18z m-219 -61 c46 -7 50 -13 26 -49 -18 -27 -39 -32
-48 -12 -3 8 -11 4 -23 -13 -10 -13 -26 -31 -35 -39 -10 -9 -29 -45 -43 -81
-52 -134 -84 -180 -156 -224 -37 -23 -128 -97 -203 -165 -119 -110 -145 -129
-214 -156 -82 -34 -82 -34 -438 -52 l-122 -6 -10 34 c-22 67 -49 198 -43 207
3 5 35 24 71 42 61 31 68 32 142 26 59 -5 83 -3 100 8 39 25 172 56 239 56
l64 1 -27 20 c-49 36 -32 59 42 59 32 0 39 4 42 23 4 29 55 34 150 12 76 -17
96 -13 60 14 -12 9 -33 24 -45 33 l-22 18 25 20 c29 23 75 25 110 5 32 -18 50
-19 50 -1 0 9 21 21 54 30 29 9 58 21 63 28 11 13 45 110 40 113 -1 2 -23 12
-49 23 -78 34 -62 45 55 38 56 -3 121 -8 145 -12z m-1408 -1014 c0 -15 -72
-59 -109 -66 -49 -10 -37 14 25 48 50 28 84 35 84 18z m858 -2353 c25 -26 48
-85 37 -95 -4 -4 -15 4 -24 18 -9 14 -26 36 -39 49 -13 13 -21 29 -18 37 8 20
19 17 44 -9z m-2642 -302 c12 -29 -22 -54 -93 -70 -28 -6 -33 -4 -33 13 0 46
111 96 126 57z"/>
<path d="M4958 7273 c7 -3 16 -2 19 1 4 3 -2 6 -13 5 -11 0 -14 -3 -6 -6z"/>
<path d="M5010 6046 c0 -2 7 -7 16 -10 8 -3 12 -2 9 4 -6 10 -25 14 -25 6z"/>
</g>
</svg>
